<svg width="173" height="99" viewBox="0 0 173 99" fill="none" xmlns="http://www.w3.org/2000/svg">
<g clip-path="url(#clip0_1_3597)">
<path d="M32.0971 10.6045H44.063V12.8321H39.3515V25.3893H36.7691V12.8321H32.0774L32.0971 10.6045ZM43.5504 14.6851H45.7583V16.755H45.7977C45.8766 16.4593 46.0146 16.1833 46.2117 15.9073C46.4088 15.6313 46.6454 15.3751 46.9411 15.1582C47.2171 14.9217 47.5325 14.7442 47.8873 14.6062C48.2224 14.4683 48.5773 14.3894 48.9321 14.3894C49.2081 14.3894 49.4052 14.4091 49.5038 14.4091C49.6023 14.4288 49.7206 14.4485 49.8192 14.4485V16.7156C49.6615 16.6761 49.4841 16.6564 49.3066 16.6367C49.1292 16.617 48.9715 16.5973 48.7941 16.5973C48.3998 16.5973 48.0253 16.6761 47.6705 16.8338C47.3156 16.9915 47.0199 17.2281 46.7439 17.5238C46.4877 17.8392 46.2708 18.2137 46.1131 18.6671C45.9554 19.1206 45.8766 19.6528 45.8766 20.2442V25.3302H43.511L43.5504 14.6851ZM60.6614 25.3893H58.3352V23.8911H58.2958C58.0001 24.4431 57.5664 24.8571 56.9948 25.1922C56.4231 25.5273 55.8317 25.685 55.2403 25.685C53.8407 25.685 52.8156 25.3499 52.1848 24.6402C51.5539 23.9503 51.2385 22.8857 51.2385 21.4861V14.6851H53.6041V21.2496C53.6041 22.1958 53.7815 22.866 54.1561 23.2406C54.5109 23.6348 55.0234 23.832 55.674 23.832C56.1668 23.832 56.5808 23.7531 56.9159 23.5954C57.251 23.4377 57.527 23.2406 57.7241 22.9843C57.941 22.728 58.079 22.4126 58.1775 22.0578C58.2761 21.703 58.3155 21.3087 58.3155 20.8947V14.6851H60.6811V25.3893H60.6614ZM64.6829 21.9592C64.7617 22.6492 65.018 23.1223 65.4714 23.418C65.9248 23.694 66.4767 23.832 67.1076 23.832C67.3244 23.832 67.5807 23.8123 67.8567 23.7728C68.1327 23.7334 68.4086 23.6743 68.6452 23.5757C68.9015 23.4771 69.0986 23.3391 69.2563 23.142C69.414 22.9449 69.4929 22.7083 69.4731 22.4126C69.4534 22.1169 69.3549 21.8607 69.138 21.6635C68.9212 21.4664 68.6649 21.3284 68.3495 21.1904C68.0341 21.0721 67.6595 20.9736 67.2456 20.8947C66.8316 20.8159 66.4176 20.7173 65.9839 20.6187C65.5502 20.5202 65.1166 20.4019 64.7026 20.2639C64.2886 20.1259 63.9338 19.9485 63.5986 19.6922C63.2832 19.4557 63.0072 19.16 62.8298 18.7854C62.6327 18.4109 62.5341 17.9772 62.5341 17.4252C62.5341 16.8338 62.6721 16.3607 62.9678 15.9665C63.2438 15.5722 63.6184 15.2568 64.052 15.0202C64.4857 14.7837 64.9786 14.6062 65.5108 14.5077C66.0431 14.4091 66.5556 14.3697 67.0287 14.3697C67.5807 14.3697 68.1129 14.4288 68.6058 14.5471C69.0986 14.6654 69.5717 14.8428 69.966 15.1188C70.3799 15.3751 70.7151 15.7299 70.9713 16.1439C71.2473 16.5578 71.405 17.0704 71.4839 17.6618H69.0197C68.9015 17.0901 68.6452 16.7156 68.2509 16.5184C67.837 16.3213 67.3836 16.2227 66.8513 16.2227C66.6936 16.2227 66.4768 16.2424 66.2599 16.2621C66.0233 16.3016 65.8262 16.341 65.6094 16.4199C65.4122 16.4987 65.2348 16.617 65.0968 16.755C64.9588 16.893 64.88 17.0901 64.88 17.3267C64.88 17.6224 64.9786 17.8392 65.1757 18.0166C65.3728 18.194 65.6291 18.332 65.9642 18.47C66.2796 18.5883 66.6542 18.6869 67.0681 18.7657C67.4821 18.8446 67.9158 18.9431 68.3495 19.0417C68.7832 19.1403 69.1972 19.2585 69.6111 19.3965C70.0251 19.5345 70.3997 19.7119 70.7151 19.9682C71.0305 20.2048 71.3065 20.5005 71.5036 20.8553C71.7007 21.2101 71.7993 21.6635 71.7993 22.1761C71.7993 22.8069 71.6613 23.3392 71.3656 23.7926C71.0699 24.2262 70.6954 24.6008 70.242 24.8768C69.7886 25.1528 69.2563 25.3499 68.7043 25.4879C68.1327 25.6062 67.5807 25.685 67.0287 25.685C66.3585 25.685 65.7277 25.6062 65.156 25.4485C64.5843 25.2907 64.0718 25.0542 63.6578 24.7585C63.2438 24.4431 62.9087 24.0685 62.6721 23.5954C62.4356 23.142 62.2976 22.5901 62.2779 21.9395H64.6631V21.9592H64.6829ZM72.4695 14.6851H74.2634V11.4522H76.629V14.6654H78.758V16.4199H76.629V22.1367C76.629 22.3929 76.6487 22.5901 76.6684 22.7872C76.6881 22.9646 76.7473 23.1223 76.8064 23.2406C76.8853 23.3589 77.0036 23.4574 77.1415 23.5166C77.2992 23.5757 77.4964 23.6151 77.7724 23.6151C77.9301 23.6151 78.1075 23.6151 78.2652 23.5954C78.4229 23.5757 78.6003 23.556 78.758 23.5166V25.3499C78.5017 25.3893 78.2455 25.409 77.9892 25.4287C77.7329 25.4682 77.4964 25.4682 77.2204 25.4682C76.5896 25.4682 76.0967 25.409 75.7222 25.2908C75.3476 25.1725 75.052 24.9951 74.8351 24.7782C74.6183 24.5417 74.4803 24.2657 74.4014 23.9305C74.3226 23.5954 74.2831 23.1814 74.2634 22.7478V16.4396H72.4695V14.6457V14.6851ZM80.4139 14.6851H82.6415V16.1439H82.6809C83.016 15.513 83.4694 15.0794 84.0608 14.8034C84.6522 14.5274 85.2831 14.3894 85.9927 14.3894C86.8404 14.3894 87.5698 14.5274 88.2006 14.8428C88.8314 15.1385 89.344 15.5328 89.7579 16.065C90.1719 16.5776 90.4873 17.1887 90.6844 17.8786C90.8816 18.5686 90.9999 19.3177 90.9999 20.0865C90.9999 20.8159 90.9013 21.5058 90.7239 22.1761C90.5267 22.8463 90.2507 23.4574 89.8762 23.97C89.5017 24.4825 89.0285 24.8965 88.4371 25.2119C87.8458 25.5273 87.1755 25.685 86.387 25.685C86.0519 25.685 85.697 25.6456 85.3619 25.5864C85.0268 25.5273 84.6917 25.4287 84.3762 25.2908C84.0608 25.1528 83.7651 24.9753 83.5089 24.7585C83.2329 24.5417 83.016 24.2854 82.8386 24.0094H82.7992V29.3516H80.4336V14.6851H80.4139ZM88.6737 20.0471C88.6737 19.574 88.6146 19.1008 88.4766 18.6474C88.3583 18.194 88.1612 17.7998 87.9049 17.4449C87.6486 17.0901 87.3332 16.8141 86.9784 16.5973C86.6038 16.3804 86.1701 16.2819 85.697 16.2819C84.7114 16.2819 83.9623 16.617 83.4497 17.3069C82.9569 17.9969 82.7006 18.9234 82.7006 20.0668C82.7006 20.6187 82.7598 21.1116 82.8978 21.565C83.0358 22.0184 83.2132 22.4126 83.4892 22.7478C83.7454 23.0829 84.0608 23.3391 84.4354 23.5363C84.8099 23.7334 85.2239 23.832 85.7167 23.832C86.2687 23.832 86.7024 23.7137 87.0769 23.4969C87.4515 23.28 87.7472 22.9843 88.0035 22.6492C88.24 22.2944 88.4174 21.9001 88.516 21.4467C88.6146 20.9736 88.6737 20.5202 88.6737 20.0471ZM92.8332 10.6045H95.1987V12.8321H92.8332V10.6045ZM92.8332 14.6851H95.1987V25.3893H92.8332V14.6851ZM97.308 10.6045H99.6736V25.3893H97.308V10.6045ZM106.889 25.685C106.041 25.685 105.272 25.547 104.602 25.2513C103.932 24.9556 103.38 24.5811 102.907 24.0883C102.453 23.5954 102.098 22.9843 101.862 22.2944C101.625 21.6044 101.487 20.8356 101.487 20.0274C101.487 19.2191 101.605 18.47 101.862 17.7801C102.098 17.0901 102.453 16.4987 102.907 15.9862C103.36 15.4933 103.932 15.0991 104.602 14.8231C105.272 14.5471 106.041 14.3894 106.889 14.3894C107.736 14.3894 108.505 14.5274 109.175 14.8231C109.846 15.0991 110.398 15.4933 110.871 15.9862C111.324 16.479 111.679 17.0901 111.915 17.7801C112.152 18.47 112.29 19.2191 112.29 20.0274C112.29 20.8553 112.172 21.6044 111.915 22.2944C111.659 22.9843 111.324 23.5757 110.871 24.0883C110.417 24.5811 109.846 24.9753 109.175 25.2513C108.505 25.5273 107.756 25.685 106.889 25.685ZM106.889 23.8123C107.401 23.8123 107.874 23.694 108.249 23.4771C108.643 23.2603 108.939 22.9646 109.195 22.6098C109.451 22.2549 109.629 21.841 109.747 21.4073C109.865 20.9539 109.924 20.5005 109.924 20.0274C109.924 19.5739 109.865 19.1206 109.747 18.6671C109.629 18.2137 109.451 17.8195 109.195 17.4646C108.939 17.1098 108.623 16.8338 108.249 16.617C107.855 16.4001 107.401 16.2819 106.889 16.2819C106.376 16.2819 105.903 16.4001 105.528 16.617C105.134 16.8338 104.838 17.1295 104.582 17.4646C104.326 17.8195 104.148 18.2137 104.03 18.6671C103.912 19.1206 103.853 19.5739 103.853 20.0274C103.853 20.5005 103.912 20.9539 104.03 21.4073C104.148 21.8607 104.326 22.2549 104.582 22.6098C104.838 22.9646 105.154 23.2603 105.528 23.4771C105.923 23.7137 106.376 23.8123 106.889 23.8123ZM113 14.6851H114.794V11.4522H117.159V14.6654H119.288V16.4199H117.159V22.1367C117.159 22.3929 117.179 22.5901 117.199 22.7872C117.218 22.9646 117.277 23.1223 117.337 23.2406C117.415 23.3589 117.534 23.4574 117.672 23.5166C117.829 23.5757 118.027 23.6151 118.302 23.6151C118.46 23.6151 118.638 23.6151 118.795 23.5954C118.953 23.5757 119.13 23.556 119.288 23.5166V25.3499C119.032 25.3893 118.776 25.409 118.519 25.4287C118.263 25.4682 118.027 25.4682 117.751 25.4682C117.12 25.4682 116.627 25.409 116.252 25.2908C115.878 25.1725 115.582 24.9951 115.365 24.7782C115.148 24.5417 115.01 24.2657 114.932 23.9305C114.853 23.5954 114.813 23.1814 114.794 22.7478V16.4396H113V14.6457V14.6851Z" fill="black"/>
<path d="M29.3377 10.6044H18.5152L15.1837 0.314209L11.8325 10.6044L1.01001 10.5847L9.76263 16.9521L6.4114 27.2423L15.164 20.875L23.9166 27.2423L20.5851 16.9521L29.3377 10.6044Z" fill="#00B67A"/>
<path d="M21.3333 19.2783L20.5843 16.9521L15.1829 20.8751L21.3333 19.2783Z" fill="#005128"/>
</g>
<rect x="0.923096" y="39.2488" width="30.9502" height="30.9502" fill="#00B67A"/>
<rect x="35.7421" y="39.2488" width="30.9502" height="30.9502" fill="#00B67A"/>
<rect x="70.5612" y="39.2488" width="30.9502" height="30.9502" fill="#00B67A"/>
<rect x="105.38" y="39.2488" width="30.9502" height="30.9502" fill="#00B67A"/>
<rect x="140.199" y="39.2488" width="30.9502" height="30.9502" fill="#DCDCE6"/>
<rect x="140.199" y="39.2488" width="15.4751" height="30.9502" fill="#00B67A"/>
<g clip-path="url(#clip1_1_3597)">
<path d="M26.3525 52.0619H18.7297L16.3831 44.814L14.0227 52.0619L6.3999 52.048L12.5648 56.5328L10.2044 63.7807L16.3692 59.2959L22.5341 63.7807L20.1876 56.5328L26.3525 52.0619Z" fill="white"/>
<path d="M20.7154 58.1714L20.1878 56.533L16.3833 59.296L20.7154 58.1714Z" fill="#00B67A"/>
</g>
<g clip-path="url(#clip2_1_3597)">
<path d="M61.1714 52.0619H53.5486L51.2021 44.814L48.8417 52.0619L41.2189 52.048L47.3838 56.5328L45.0233 63.7807L51.1882 59.2959L57.3531 63.7807L55.0066 56.5328L61.1714 52.0619Z" fill="white"/>
<path d="M55.5345 58.1714L55.0068 56.533L51.2024 59.296L55.5345 58.1714Z" fill="#00B67A"/>
</g>
<g clip-path="url(#clip3_1_3597)">
<path d="M95.9905 52.0619H88.3677L86.0212 44.814L83.6608 52.0619L76.038 52.048L82.2028 56.5328L79.8424 63.7807L86.0073 59.2959L92.1722 63.7807L89.8256 56.5328L95.9905 52.0619Z" fill="white"/>
<path d="M90.3533 58.1714L89.8257 56.533L86.0212 59.296L90.3533 58.1714Z" fill="#00B67A"/>
</g>
<g clip-path="url(#clip4_1_3597)">
<path d="M130.81 52.0619H123.187L120.84 44.814L118.48 52.0619L110.857 52.048L117.022 56.5328L114.661 63.7807L120.826 59.2959L126.991 63.7807L124.645 56.5328L130.81 52.0619Z" fill="white"/>
<path d="M125.172 58.1714L124.645 56.533L120.84 59.296L125.172 58.1714Z" fill="#00B67A"/>
</g>
<g clip-path="url(#clip5_1_3597)">
<path d="M165.628 52.0619H158.006L155.659 44.814L153.299 52.0619L145.676 52.048L151.841 56.5328L149.48 63.7807L155.645 59.2959L161.81 63.7807L159.463 56.5328L165.628 52.0619Z" fill="white"/>
<path d="M159.991 58.1714L159.464 56.533L155.659 59.296L159.991 58.1714Z" fill="#DCDCE6"/>
</g>
<path d="M1.4001 85.6291V84.6059H7.49727V85.6291H5.03917V92.4841H3.85435V85.6291H1.4001ZM8.13872 92.4841V86.5755H9.25045V87.5141H9.312C9.41971 87.1961 9.60948 86.946 9.88132 86.7639C10.1557 86.5793 10.466 86.487 10.8122 86.487C10.8841 86.487 10.9687 86.4895 11.0661 86.4947C11.1662 86.4998 11.2444 86.5062 11.3008 86.5139V87.6141C11.2546 87.6013 11.1726 87.5872 11.0546 87.5718C10.9366 87.5538 10.8187 87.5448 10.7007 87.5448C10.4289 87.5448 10.1865 87.6025 9.97365 87.7179C9.76336 87.8308 9.59666 87.9885 9.47356 88.1911C9.35047 88.3911 9.28892 88.6194 9.28892 88.8758V92.4841H8.13872ZM16.0391 90.0337V86.5755H17.1931V92.4841H16.0622V91.4609H16.0006C15.8647 91.7763 15.6467 92.0392 15.3467 92.2495C15.0492 92.4572 14.6786 92.5611 14.2349 92.5611C13.8554 92.5611 13.5194 92.4777 13.2271 92.311C12.9373 92.1418 12.709 91.8917 12.5423 91.5609C12.3782 91.2301 12.2961 90.821 12.2961 90.3338V86.5755H13.4463V90.1953C13.4463 90.5979 13.5579 90.9185 13.781 91.157C14.0041 91.3955 14.2939 91.5147 14.6504 91.5147C14.8658 91.5147 15.0799 91.4609 15.2928 91.3532C15.5082 91.2455 15.6865 91.0826 15.8275 90.8646C15.9711 90.6466 16.0416 90.3697 16.0391 90.0337ZM23.1662 88.018L22.1238 88.2026C22.0802 88.0693 22.0109 87.9423 21.916 87.8218C21.8237 87.7013 21.698 87.6025 21.539 87.5256C21.38 87.4487 21.1813 87.4102 20.9428 87.4102C20.6171 87.4102 20.3453 87.4833 20.1273 87.6295C19.9093 87.7731 19.8003 87.959 19.8003 88.1873C19.8003 88.3847 19.8734 88.5437 20.0196 88.6643C20.1657 88.7848 20.4017 88.8835 20.7274 88.9605L21.666 89.1759C22.2097 89.3015 22.6149 89.4952 22.8816 89.7568C23.1483 90.0183 23.2816 90.3581 23.2816 90.7762C23.2816 91.1301 23.1791 91.4455 22.9739 91.7225C22.7713 91.9969 22.4879 92.2123 22.1238 92.3687C21.7622 92.5252 21.3429 92.6034 20.8659 92.6034C20.2042 92.6034 19.6644 92.4623 19.2463 92.1802C18.8283 91.8956 18.5719 91.4917 18.477 90.9685L19.5887 90.7992C19.658 91.089 19.8003 91.3083 20.0157 91.457C20.2311 91.6032 20.5119 91.6763 20.8582 91.6763C21.2351 91.6763 21.5365 91.5981 21.7622 91.4416C21.9878 91.2826 22.1007 91.089 22.1007 90.8608C22.1007 90.6761 22.0314 90.521 21.8929 90.3953C21.757 90.2697 21.548 90.1748 21.2659 90.1107L20.2658 89.8914C19.7144 89.7657 19.3066 89.5657 19.0425 89.2913C18.7809 89.0169 18.6501 88.6694 18.6501 88.2488C18.6501 87.9 18.7475 87.5949 18.9425 87.3333C19.1374 87.0717 19.4066 86.8678 19.7503 86.7216C20.0939 86.5729 20.4876 86.4985 20.9312 86.4985C21.5698 86.4985 22.0725 86.637 22.4392 86.914C22.8059 87.1884 23.0483 87.5564 23.1662 88.018ZM27.3044 86.5755V87.4987H24.077V86.5755H27.3044ZM24.9425 85.1598H26.0927V90.7492C26.0927 90.9723 26.126 91.1403 26.1927 91.2532C26.2594 91.3634 26.3453 91.4391 26.4504 91.4801C26.5581 91.5186 26.6748 91.5378 26.8005 91.5378C26.8928 91.5378 26.9736 91.5314 27.0428 91.5186C27.1121 91.5058 27.1659 91.4955 27.2044 91.4878L27.4121 92.438C27.3455 92.4636 27.2506 92.4893 27.1275 92.5149C27.0044 92.5431 26.8505 92.5585 26.6659 92.5611C26.3632 92.5662 26.0811 92.5123 25.8196 92.3995C25.558 92.2867 25.3464 92.1123 25.1848 91.8763C25.0233 91.6404 24.9425 91.3442 24.9425 90.9877V85.1598ZM32.9092 88.018L31.8667 88.2026C31.8231 88.0693 31.7539 87.9423 31.659 87.8218C31.5667 87.7013 31.441 87.6025 31.282 87.5256C31.123 87.4487 30.9243 87.4102 30.6858 87.4102C30.3601 87.4102 30.0882 87.4833 29.8702 87.6295C29.6523 87.7731 29.5433 87.959 29.5433 88.1873C29.5433 88.3847 29.6164 88.5437 29.7625 88.6643C29.9087 88.7848 30.1446 88.8835 30.4703 88.9605L31.409 89.1759C31.9526 89.3015 32.3578 89.4952 32.6245 89.7568C32.8913 90.0183 33.0246 90.3581 33.0246 90.7762C33.0246 91.1301 32.922 91.4455 32.7169 91.7225C32.5143 91.9969 32.2309 92.2123 31.8667 92.3687C31.5051 92.5252 31.0858 92.6034 30.6088 92.6034C29.9472 92.6034 29.4073 92.4623 28.9893 92.1802C28.5713 91.8956 28.3149 91.4917 28.22 90.9685L29.3317 90.7992C29.4009 91.089 29.5433 91.3083 29.7587 91.457C29.9741 91.6032 30.2549 91.6763 30.6011 91.6763C30.9781 91.6763 31.2795 91.5981 31.5051 91.4416C31.7308 91.2826 31.8436 91.089 31.8436 90.8608C31.8436 90.6761 31.7744 90.521 31.6359 90.3953C31.5 90.2697 31.291 90.1748 31.0089 90.1107L30.0087 89.8914C29.4574 89.7657 29.0496 89.5657 28.7854 89.2913C28.5239 89.0169 28.3931 88.6694 28.3931 88.2488C28.3931 87.9 28.4905 87.5949 28.6854 87.3333C28.8803 87.0717 29.1496 86.8678 29.4933 86.7216C29.8369 86.5729 30.2306 86.4985 30.6742 86.4985C31.3128 86.4985 31.8154 86.637 32.1822 86.914C32.5489 87.1884 32.7912 87.5564 32.9092 88.018ZM36.7781 92.6034C36.2062 92.6034 35.7138 92.4739 35.301 92.2149C34.8906 91.9533 34.5752 91.593 34.3546 91.1339C34.1341 90.6749 34.0238 90.1491 34.0238 89.5567C34.0238 88.9566 34.1367 88.427 34.3623 87.968C34.588 87.5064 34.906 87.1461 35.3163 86.887C35.7267 86.628 36.2101 86.4985 36.7666 86.4985C37.2154 86.4985 37.6154 86.5819 37.9668 86.7486C38.3181 86.9127 38.6015 87.1435 38.8169 87.441C39.0349 87.7385 39.1644 88.086 39.2055 88.4835H38.086C38.0245 88.2065 37.8834 87.968 37.6629 87.768C37.4449 87.5679 37.1525 87.4679 36.7858 87.4679C36.4653 87.4679 36.1844 87.5525 35.9434 87.7218C35.7049 87.8885 35.5189 88.127 35.3856 88.4373C35.2522 88.745 35.1856 89.1092 35.1856 89.5298C35.1856 89.9606 35.251 90.3325 35.3817 90.6454C35.5125 90.9582 35.6972 91.2006 35.9357 91.3724C36.1767 91.5442 36.4601 91.6301 36.7858 91.6301C37.0038 91.6301 37.2013 91.5904 37.3782 91.5109C37.5577 91.4288 37.7078 91.3121 37.8283 91.1608C37.9514 91.0095 38.0373 90.8274 38.086 90.6146H39.2055C39.1644 90.9967 39.04 91.3378 38.8323 91.6378C38.6246 91.9379 38.3463 92.1738 37.9976 92.3456C37.6514 92.5175 37.2449 92.6034 36.7781 92.6034ZM42.9243 92.6034C42.3704 92.6034 41.887 92.4764 41.4741 92.2225C41.0612 91.9687 40.7406 91.6135 40.5124 91.157C40.2842 90.7005 40.17 90.1671 40.17 89.5567C40.17 88.9438 40.2842 88.4078 40.5124 87.9488C40.7406 87.4897 41.0612 87.1332 41.4741 86.8793C41.887 86.6255 42.3704 86.4985 42.9243 86.4985C43.4783 86.4985 43.9617 86.6255 44.3746 86.8793C44.7875 87.1332 45.108 87.4897 45.3363 87.9488C45.5645 88.4078 45.6787 88.9438 45.6787 89.5567C45.6787 90.1671 45.5645 90.7005 45.3363 91.157C45.108 91.6135 44.7875 91.9687 44.3746 92.2225C43.9617 92.4764 43.4783 92.6034 42.9243 92.6034ZM42.9282 91.6378C43.2872 91.6378 43.5847 91.5429 43.8206 91.3532C44.0566 91.1634 44.231 90.9108 44.3438 90.5954C44.4592 90.2799 44.5169 89.9324 44.5169 89.5529C44.5169 89.1759 44.4592 88.8297 44.3438 88.5142C44.231 88.1962 44.0566 87.9411 43.8206 87.7487C43.5847 87.5564 43.2872 87.4602 42.9282 87.4602C42.5666 87.4602 42.2665 87.5564 42.028 87.7487C41.7921 87.9411 41.6164 88.1962 41.501 88.5142C41.3882 88.8297 41.3318 89.1759 41.3318 89.5529C41.3318 89.9324 41.3882 90.2799 41.501 90.5954C41.6164 90.9108 41.7921 91.1634 42.028 91.3532C42.2665 91.5429 42.5666 91.6378 42.9282 91.6378ZM46.9625 92.4841V86.5755H48.0742V87.5141H48.1358C48.2435 87.1961 48.4333 86.946 48.7051 86.7639C48.9795 86.5793 49.2898 86.487 49.636 86.487C49.7079 86.487 49.7925 86.4895 49.8899 86.4947C49.99 86.4998 50.0682 86.5062 50.1246 86.5139V87.6141C50.0784 87.6013 49.9964 87.5872 49.8784 87.5718C49.7604 87.5538 49.6425 87.5448 49.5245 87.5448C49.2526 87.5448 49.0103 87.6025 48.7974 87.7179C48.5872 87.8308 48.4205 87.9885 48.2974 88.1911C48.1743 88.3911 48.1127 88.6194 48.1127 88.8758V92.4841H46.9625ZM53.455 92.6034C52.8728 92.6034 52.3714 92.479 51.9509 92.2302C51.5328 91.9789 51.2097 91.6263 50.9815 91.1724C50.7558 90.7159 50.6429 90.1812 50.6429 89.5683C50.6429 88.963 50.7558 88.4296 50.9815 87.968C51.2097 87.5064 51.5277 87.1461 51.9355 86.887C52.3458 86.628 52.8254 86.4985 53.3742 86.4985C53.7076 86.4985 54.0307 86.5537 54.3436 86.6639C54.6564 86.7742 54.9373 86.9473 55.186 87.1832C55.4348 87.4192 55.631 87.7256 55.7746 88.1026C55.9182 88.4771 55.99 88.9323 55.99 89.4682V89.876H51.2931V89.0143H54.8629C54.8629 88.7117 54.8013 88.4437 54.6782 88.2103C54.5551 87.9744 54.382 87.7885 54.1589 87.6526C53.9384 87.5166 53.6793 87.4487 53.3819 87.4487C53.0587 87.4487 52.7766 87.5282 52.5356 87.6872C52.2971 87.8436 52.1124 88.0488 51.9816 88.3027C51.8534 88.554 51.7893 88.8271 51.7893 89.122V89.7952C51.7893 90.1902 51.8585 90.5261 51.997 90.8031C52.1381 91.0801 52.3343 91.2916 52.5856 91.4378C52.8369 91.5814 53.1305 91.6532 53.4665 91.6532C53.6845 91.6532 53.8832 91.6224 54.0627 91.5609C54.2423 91.4968 54.3974 91.4019 54.5282 91.2762C54.659 91.1506 54.759 90.9954 54.8283 90.8108L55.9169 91.007C55.8297 91.3275 55.6733 91.6083 55.4476 91.8494C55.2245 92.0879 54.9437 92.2738 54.6051 92.4072C54.2692 92.538 53.8858 92.6034 53.455 92.6034Z" fill="#5E5E5E"/>
<path d="M59.9176 91.0223V89.8875L63.2604 84.6059H64.2068V86.2215H63.6297L61.3794 89.7875V89.8491H66.0455V91.0223H59.9176ZM63.6759 92.4841V90.6761L63.6913 90.1684V84.6059H65.0377V92.4841H63.6759ZM67.9256 92.5688C67.6923 92.5688 67.4922 92.4867 67.3255 92.3226C67.1588 92.1584 67.0768 91.9584 67.0793 91.7225C67.0768 91.4917 67.1588 91.2942 67.3255 91.1301C67.4922 90.9659 67.6923 90.8839 67.9256 90.8839C68.1513 90.8839 68.3475 90.9659 68.5142 91.1301C68.6835 91.2942 68.7694 91.4917 68.7719 91.7225C68.7694 91.8789 68.7283 92.0212 68.6488 92.1495C68.5719 92.2777 68.4693 92.3803 68.3411 92.4572C68.2154 92.5316 68.0769 92.5688 67.9256 92.5688ZM72.838 92.5918C72.3251 92.5918 71.866 92.4957 71.4608 92.3033C71.0557 92.1084 70.7338 91.8417 70.4953 91.5032C70.2594 91.1647 70.1337 90.7774 70.1183 90.3415H71.5032C71.5288 90.6646 71.6686 90.9287 71.9225 91.1339C72.1764 91.3365 72.4815 91.4378 72.838 91.4378C73.1175 91.4378 73.3663 91.3737 73.5843 91.2455C73.8023 91.1172 73.9741 90.939 74.0997 90.7108C74.2254 90.4825 74.287 90.2222 74.2844 89.9299C74.287 89.6324 74.2241 89.3682 74.0959 89.1374C73.9677 88.9066 73.792 88.7258 73.5689 88.595C73.3458 88.4617 73.0893 88.395 72.7995 88.395C72.5636 88.3924 72.3315 88.436 72.1033 88.5258C71.875 88.6155 71.6942 88.7335 71.5609 88.8797L70.2722 88.6681L70.6838 84.6059H75.2538V85.7984H71.8648L71.6378 87.8872H71.684C71.8301 87.7154 72.0366 87.5731 72.3033 87.4602C72.57 87.3448 72.8624 87.2871 73.1804 87.2871C73.6574 87.2871 74.0831 87.3999 74.4575 87.6256C74.8319 87.8487 75.1268 88.1565 75.3423 88.5489C75.5577 88.9412 75.6654 89.39 75.6654 89.8952C75.6654 90.4158 75.5449 90.88 75.3038 91.2878C75.0653 91.693 74.7332 92.0123 74.3075 92.2456C73.8843 92.4764 73.3945 92.5918 72.838 92.5918Z" fill="#0D0D0D"/>
<rect x="83.1132" y="82.4072" width="0.773756" height="13.1538" fill="#2E2E2E"/>
<path d="M93.9814 84.6059V92.4841H92.5542V85.9946H92.5081L90.6655 87.1717V85.8638L92.6235 84.6059H93.9814ZM98.7207 92.5918C98.2078 92.5918 97.7487 92.4957 97.3435 92.3033C96.9383 92.1084 96.6165 91.8417 96.378 91.5032C96.142 91.1647 96.0164 90.7774 96.001 90.3415H97.3858C97.4115 90.6646 97.5512 90.9287 97.8051 91.1339C98.059 91.3365 98.3642 91.4378 98.7207 91.4378C99.0002 91.4378 99.249 91.3737 99.4669 91.2455C99.6849 91.1172 99.8567 90.939 99.9824 90.7108C100.108 90.4825 100.17 90.2222 100.167 89.9299C100.17 89.6324 100.107 89.3682 99.9786 89.1374C99.8503 88.9066 99.6747 88.7258 99.4515 88.595C99.2284 88.4617 98.972 88.395 98.6822 88.395C98.4463 88.3924 98.2142 88.436 97.9859 88.5258C97.7577 88.6155 97.5769 88.7335 97.4435 88.8797L96.1548 88.6681L96.5665 84.6059H101.136V85.7984H97.7474L97.5205 87.8872H97.5666C97.7128 87.7154 97.9192 87.5731 98.186 87.4602C98.4527 87.3448 98.745 87.2871 99.063 87.2871C99.54 87.2871 99.9657 87.3999 100.34 87.6256C100.715 87.8487 101.01 88.1565 101.225 88.5489C101.44 88.9412 101.548 89.39 101.548 89.8952C101.548 90.4158 101.428 90.88 101.186 91.2878C100.948 91.693 100.616 92.0123 100.19 92.2456C99.767 92.4764 99.2772 92.5918 98.7207 92.5918ZM104.223 91.407L104.173 91.8302C104.137 92.1533 104.073 92.4816 103.98 92.815C103.89 93.1509 103.796 93.4599 103.696 93.742C103.596 94.0241 103.515 94.246 103.453 94.4075H102.515C102.55 94.2511 102.599 94.0382 102.661 93.769C102.725 93.4997 102.786 93.1971 102.845 92.8611C102.904 92.5252 102.944 92.1841 102.965 91.8379L102.992 91.407H104.223ZM108.211 92.4841V91.4532L110.946 88.772C111.207 88.5078 111.425 88.2732 111.6 88.068C111.774 87.8628 111.905 87.6641 111.992 87.4718C112.079 87.2794 112.123 87.0743 112.123 86.8563C112.123 86.6075 112.066 86.3947 111.954 86.2177C111.841 86.0382 111.686 85.8997 111.488 85.8022C111.291 85.7048 111.066 85.6561 110.815 85.6561C110.556 85.6561 110.329 85.7099 110.134 85.8176C109.939 85.9228 109.788 86.0728 109.68 86.2677C109.575 86.4626 109.522 86.6947 109.522 86.964H108.165C108.165 86.4639 108.279 86.0292 108.507 85.6599C108.735 85.2906 109.049 85.0047 109.449 84.8021C109.852 84.5995 110.314 84.4982 110.834 84.4982C111.363 84.4982 111.827 84.5969 112.227 84.7944C112.627 84.9919 112.937 85.2624 113.158 85.6061C113.381 85.9497 113.492 86.3421 113.492 86.7832C113.492 87.0781 113.436 87.3679 113.323 87.6526C113.21 87.9372 113.012 88.2527 112.727 88.5989C112.445 88.9451 112.049 89.3644 111.538 89.8568L110.18 91.2378V91.2916H113.612V92.4841H108.211ZM117.851 92.6342C117.217 92.6342 116.674 92.4739 116.22 92.1533C115.768 91.8302 115.421 91.3647 115.177 90.7569C114.936 90.1466 114.816 89.4118 114.816 88.5527C114.818 87.6936 114.94 86.9627 115.181 86.36C115.425 85.7548 115.772 85.2932 116.224 84.9752C116.678 84.6572 117.22 84.4982 117.851 84.4982C118.482 84.4982 119.024 84.6572 119.478 84.9752C119.932 85.2932 120.279 85.7548 120.52 86.36C120.764 86.9653 120.886 87.6962 120.886 88.5527C120.886 89.4144 120.764 90.1504 120.52 90.7608C120.279 91.3686 119.932 91.8327 119.478 92.1533C119.027 92.4739 118.484 92.6342 117.851 92.6342ZM117.851 91.4301C118.343 91.4301 118.732 91.1878 119.016 90.7031C119.304 90.2158 119.447 89.499 119.447 88.5527C119.447 87.927 119.382 87.4012 119.251 86.9755C119.12 86.5498 118.936 86.2292 118.697 86.0138C118.459 85.7958 118.176 85.6868 117.851 85.6868C117.361 85.6868 116.974 85.9305 116.689 86.4177C116.404 86.9024 116.261 87.6141 116.258 88.5527C116.256 89.181 116.318 89.7093 116.447 90.1376C116.577 90.5659 116.762 90.889 117.001 91.107C117.239 91.3224 117.523 91.4301 117.851 91.4301ZM124.991 92.5918C124.437 92.5918 123.945 92.497 123.514 92.3072C123.086 92.1174 122.747 91.8533 122.499 91.5147C122.25 91.1762 122.118 90.7851 122.102 90.3415H123.549C123.562 90.5543 123.632 90.7402 123.76 90.8993C123.889 91.0557 124.059 91.1775 124.272 91.2647C124.485 91.3519 124.723 91.3955 124.988 91.3955C125.27 91.3955 125.52 91.3468 125.738 91.2493C125.956 91.1493 126.126 91.0108 126.249 90.8339C126.372 90.6569 126.433 90.453 126.43 90.2222C126.433 89.9837 126.371 89.7734 126.245 89.5913C126.12 89.4093 125.938 89.2669 125.699 89.1643C125.463 89.0618 125.179 89.0105 124.845 89.0105H124.149V87.9103H124.845C125.12 87.9103 125.359 87.8628 125.565 87.768C125.772 87.6731 125.935 87.5397 126.053 87.3679C126.171 87.1935 126.229 86.9922 126.226 86.7639C126.229 86.5408 126.179 86.3472 126.076 86.1831C125.976 86.0164 125.834 85.8869 125.649 85.7946C125.467 85.7022 125.253 85.6561 125.007 85.6561C124.766 85.6561 124.543 85.6997 124.337 85.7869C124.132 85.8741 123.967 85.9984 123.841 86.16C123.716 86.319 123.649 86.5088 123.641 86.7293H122.268C122.278 86.2882 122.405 85.901 122.649 85.5676C122.895 85.2316 123.223 84.9701 123.633 84.7828C124.044 84.5931 124.504 84.4982 125.014 84.4982C125.54 84.4982 125.997 84.5969 126.384 84.7944C126.774 84.9893 127.075 85.2522 127.288 85.583C127.501 85.9138 127.607 86.2792 127.607 86.6793C127.61 87.123 127.479 87.4948 127.215 87.7949C126.953 88.0949 126.61 88.2911 126.184 88.3834V88.445C126.738 88.5219 127.162 88.7271 127.457 89.0605C127.755 89.3913 127.902 89.8029 127.9 90.2953C127.9 90.7364 127.774 91.1313 127.523 91.4801C127.274 91.8263 126.93 92.0982 126.492 92.2956C126.056 92.4931 125.556 92.5918 124.991 92.5918Z" fill="#0D0D0D"/>
<path d="M132.16 92.4841V86.5755H133.272V87.5141H133.333C133.441 87.1961 133.631 86.946 133.902 86.7639C134.177 86.5793 134.487 86.487 134.833 86.487C134.905 86.487 134.99 86.4895 135.087 86.4947C135.187 86.4998 135.266 86.5062 135.322 86.5139V87.6141C135.276 87.6013 135.194 87.5872 135.076 87.5718C134.958 87.5538 134.84 87.5448 134.722 87.5448C134.45 87.5448 134.208 87.6025 133.995 87.7179C133.785 87.8308 133.618 87.9885 133.495 88.1911C133.372 88.3911 133.31 88.6194 133.31 88.8758V92.4841H132.16ZM138.652 92.6034C138.07 92.6034 137.569 92.479 137.148 92.2302C136.73 91.9789 136.407 91.6263 136.179 91.1724C135.953 90.7159 135.84 90.1812 135.84 89.5683C135.84 88.963 135.953 88.4296 136.179 87.968C136.407 87.5064 136.725 87.1461 137.133 86.887C137.543 86.628 138.023 86.4985 138.572 86.4985C138.905 86.4985 139.228 86.5537 139.541 86.6639C139.854 86.7742 140.135 86.9473 140.383 87.1832C140.632 87.4192 140.828 87.7256 140.972 88.1026C141.116 88.4771 141.187 88.9323 141.187 89.4682V89.876H136.49V89.0143H140.06C140.06 88.7117 139.999 88.4437 139.876 88.2103C139.753 87.9744 139.579 87.7885 139.356 87.6526C139.136 87.5166 138.877 87.4487 138.579 87.4487C138.256 87.4487 137.974 87.5282 137.733 87.6872C137.494 87.8436 137.31 88.0488 137.179 88.3027C137.051 88.554 136.987 88.8271 136.987 89.122V89.7952C136.987 90.1902 137.056 90.5261 137.194 90.8031C137.335 91.0801 137.532 91.2916 137.783 91.4378C138.034 91.5814 138.328 91.6532 138.664 91.6532C138.882 91.6532 139.081 91.6224 139.26 91.5609C139.44 91.4968 139.595 91.4019 139.726 91.2762C139.856 91.1506 139.956 90.9954 140.026 90.8108L141.114 91.007C141.027 91.3275 140.871 91.6083 140.645 91.8494C140.422 92.0879 140.141 92.2738 139.803 92.4072C139.467 92.538 139.083 92.6034 138.652 92.6034ZM147.349 86.5755L145.206 92.4841H143.975L141.829 86.5755H143.064L144.56 91.1224H144.622L146.114 86.5755H147.349ZM148.43 92.4841V86.5755H149.58V92.4841H148.43ZM149.011 85.6638C148.811 85.6638 148.639 85.5971 148.495 85.4637C148.354 85.3278 148.284 85.1662 148.284 84.979C148.284 84.7893 148.354 84.6277 148.495 84.4943C148.639 84.3584 148.811 84.2905 149.011 84.2905C149.211 84.2905 149.381 84.3584 149.522 84.4943C149.666 84.6277 149.738 84.7893 149.738 84.979C149.738 85.1662 149.666 85.3278 149.522 85.4637C149.381 85.5971 149.211 85.6638 149.011 85.6638ZM153.674 92.6034C153.092 92.6034 152.591 92.479 152.17 92.2302C151.752 91.9789 151.429 91.6263 151.201 91.1724C150.975 90.7159 150.862 90.1812 150.862 89.5683C150.862 88.963 150.975 88.4296 151.201 87.968C151.429 87.5064 151.747 87.1461 152.155 86.887C152.565 86.628 153.044 86.4985 153.593 86.4985C153.927 86.4985 154.25 86.5537 154.563 86.6639C154.876 86.7742 155.156 86.9473 155.405 87.1832C155.654 87.4192 155.85 87.7256 155.994 88.1026C156.137 88.4771 156.209 88.9323 156.209 89.4682V89.876H151.512V89.0143H155.082C155.082 88.7117 155.02 88.4437 154.897 88.2103C154.774 87.9744 154.601 87.7885 154.378 87.6526C154.157 87.5166 153.898 87.4487 153.601 87.4487C153.278 87.4487 152.996 87.5282 152.755 87.6872C152.516 87.8436 152.332 88.0488 152.201 88.3027C152.073 88.554 152.008 88.8271 152.008 89.122V89.7952C152.008 90.1902 152.078 90.5261 152.216 90.8031C152.357 91.0801 152.553 91.2916 152.805 91.4378C153.056 91.5814 153.35 91.6532 153.686 91.6532C153.904 91.6532 154.102 91.6224 154.282 91.5609C154.461 91.4968 154.617 91.4019 154.747 91.2762C154.878 91.1506 154.978 90.9954 155.047 90.8108L156.136 91.007C156.049 91.3275 155.892 91.6083 155.667 91.8494C155.444 92.0879 155.163 92.2738 154.824 92.4072C154.488 92.538 154.105 92.6034 153.674 92.6034ZM158.756 92.4841L157.017 86.5755H158.206L159.363 90.9146H159.421L160.583 86.5755H161.772L162.926 90.8954H162.983L164.134 86.5755H165.322L163.587 92.4841H162.414L161.214 88.218H161.125L159.925 92.4841H158.756ZM170.841 88.018L169.799 88.2026C169.755 88.0693 169.686 87.9423 169.591 87.8218C169.499 87.7013 169.373 87.6025 169.214 87.5256C169.055 87.4487 168.856 87.4102 168.618 87.4102C168.292 87.4102 168.02 87.4833 167.802 87.6295C167.584 87.7731 167.475 87.959 167.475 88.1873C167.475 88.3847 167.549 88.5437 167.695 88.6643C167.841 88.7848 168.077 88.8835 168.402 88.9605L169.341 89.1759C169.885 89.3015 170.29 89.4952 170.557 89.7568C170.823 90.0183 170.957 90.3581 170.957 90.7762C170.957 91.1301 170.854 91.4455 170.649 91.7225C170.446 91.9969 170.163 92.2123 169.799 92.3687C169.437 92.5252 169.018 92.6034 168.541 92.6034C167.879 92.6034 167.339 92.4623 166.921 92.1802C166.503 91.8956 166.247 91.4917 166.152 90.9685L167.264 90.7992C167.333 91.089 167.475 91.3083 167.691 91.457C167.906 91.6032 168.187 91.6763 168.533 91.6763C168.91 91.6763 169.212 91.5981 169.437 91.4416C169.663 91.2826 169.776 91.089 169.776 90.8608C169.776 90.6761 169.707 90.521 169.568 90.3953C169.432 90.2697 169.223 90.1748 168.941 90.1107L167.941 89.8914C167.39 89.7657 166.982 89.5657 166.718 89.2913C166.456 89.0169 166.325 88.6694 166.325 88.2488C166.325 87.9 166.423 87.5949 166.618 87.3333C166.812 87.0717 167.082 86.8678 167.425 86.7216C167.769 86.5729 168.163 86.4985 168.606 86.4985C169.245 86.4985 169.748 86.637 170.114 86.914C170.481 87.1884 170.723 87.5564 170.841 88.018Z" fill="#5E5E5E"/>
<defs>
<clipPath id="clip0_1_3597">
<rect width="124.575" height="32.9563" fill="white" transform="translate(0.923096 0.102539)"/>
</clipPath>
<clipPath id="clip1_1_3597">
<rect width="20.1176" height="19.3439" fill="white" transform="translate(6.33936 44.665)"/>
</clipPath>
<clipPath id="clip2_1_3597">
<rect width="20.1176" height="19.3439" fill="white" transform="translate(41.1584 44.665)"/>
</clipPath>
<clipPath id="clip3_1_3597">
<rect width="20.1176" height="19.3439" fill="white" transform="translate(75.9774 44.665)"/>
</clipPath>
<clipPath id="clip4_1_3597">
<rect width="20.1176" height="19.3439" fill="white" transform="translate(110.796 44.665)"/>
</clipPath>
<clipPath id="clip5_1_3597">
<rect width="20.1176" height="19.3439" fill="white" transform="translate(145.615 44.665)"/>
</clipPath>
</defs>
</svg>
