<svg width="21" height="24" viewBox="0 0 21 24" fill="none" xmlns="http://www.w3.org/2000/svg">
<path d="M20.0181 0H18.0593C17.2451 0 16.4641 0.326772 15.8884 0.90843C15.3126 1.49009 14.9891 2.27899 14.9891 3.10158V7.31972L14.9462 7.2763V7.33833L13.104 5.47738L10.0338 2.37581L5.1215 7.33833V7.2763L5.07852 7.31972V2.87206C5.07852 2.11034 4.77899 1.37982 4.24582 0.841207C3.71265 0.302591 2.98952 0 2.23551 0L0.0556641 0V14.5712C0.0556641 15.3313 0.354547 16.0602 0.886563 16.5977C1.41858 17.1351 2.14015 17.4371 2.89253 17.4371H5.07852V13.5973L10.0338 8.54794L14.9953 13.5973V17.4371H16.9541C17.7683 17.4371 18.5492 17.1103 19.125 16.5286C19.7008 15.947 20.0243 15.1581 20.0243 14.3355L20.0181 0ZM0.319702 13.2872V12.5614L4.81448 8.02688V13.2872H0.319702ZM15.2593 13.2872V8.02688L19.7479 12.5614V13.2872H15.2593Z" fill="#32B000"/>
<path d="M2.66494 24H20.0177V21.6179C20.0177 20.9039 19.737 20.2192 19.2372 19.7143C18.7374 19.2094 18.0596 18.9258 17.3528 18.9258H0V21.3078C0 22.0218 0.280769 22.7066 0.780542 23.2114C1.28031 23.7163 1.95815 24 2.66494 24Z" fill="#32B000"/>
</svg>
