<svg width="113" height="15" viewBox="0 0 113 15" fill="none" xmlns="http://www.w3.org/2000/svg">
<path d="M0.291193 14V0.909091H5.20028C6.20597 0.909091 7.04972 1.09659 7.73153 1.47159C8.41761 1.84659 8.93537 2.36222 9.2848 3.01847C9.63849 3.67045 9.81534 4.41193 9.81534 5.2429C9.81534 6.08239 9.63849 6.82812 9.2848 7.48011C8.93111 8.1321 8.40909 8.6456 7.71875 9.0206C7.02841 9.39134 6.17827 9.5767 5.16832 9.5767H1.91477V7.62713H4.84872C5.43679 7.62713 5.91832 7.52486 6.29332 7.32031C6.66832 7.11577 6.94531 6.83452 7.12429 6.47656C7.30753 6.11861 7.39915 5.70739 7.39915 5.2429C7.39915 4.77841 7.30753 4.36932 7.12429 4.01562C6.94531 3.66193 6.66619 3.38707 6.28693 3.19105C5.91193 2.99077 5.42827 2.89062 4.83594 2.89062H2.66264V14H0.291193ZM14.9773 14H12.4461L17.0547 0.909091H19.9823L24.5973 14H22.0661L18.5696 3.59375H18.4674L14.9773 14ZM15.0604 8.86719H21.9638V10.772H15.0604V8.86719ZM29.2016 14V0.909091H34.1107C35.1164 0.909091 35.9601 1.08381 36.6419 1.43324C37.328 1.78267 37.8458 2.27273 38.1952 2.90341C38.5489 3.52983 38.7257 4.26065 38.7257 5.09588C38.7257 5.93537 38.5468 6.66406 38.1888 7.28196C37.8351 7.8956 37.3131 8.37074 36.6227 8.70739C35.9324 9.03977 35.0844 9.20597 34.0787 9.20597H30.5823V7.23722H33.7591C34.3472 7.23722 34.8287 7.15625 35.2037 6.99432C35.5787 6.82812 35.8557 6.58736 36.0347 6.27202C36.2179 5.95241 36.3095 5.56037 36.3095 5.09588C36.3095 4.63139 36.2179 4.23509 36.0347 3.90696C35.8514 3.57457 35.5723 3.32315 35.1973 3.1527C34.8223 2.97798 34.3387 2.89062 33.7463 2.89062H31.573V14H29.2016ZM35.9644 8.06818L39.2051 14H36.5588L33.3756 8.06818H35.9644ZM43.2133 2.89702V0.909091H53.6579V2.89702H49.6118V14H47.2595V2.89702H43.2133ZM69.3092 0.909091V14H67.1999L61.0315 5.0831H60.9229V14H58.5514V0.909091H60.6736L66.8355 9.83239H66.9506V0.909091H69.3092ZM74.7732 14V0.909091H83.2874V2.89702H77.1447V6.45099H82.8464V8.43892H77.1447V12.0121H83.3386V14H74.7732ZM88.5868 14V0.909091H93.4959C94.5016 0.909091 95.3453 1.08381 96.0272 1.43324C96.7132 1.78267 97.231 2.27273 97.5804 2.90341C97.9341 3.52983 98.111 4.26065 98.111 5.09588C98.111 5.93537 97.932 6.66406 97.574 7.28196C97.2203 7.8956 96.6983 8.37074 96.008 8.70739C95.3176 9.03977 94.4696 9.20597 93.4639 9.20597H89.9675V7.23722H93.1443C93.7324 7.23722 94.2139 7.15625 94.5889 6.99432C94.9639 6.82812 95.2409 6.58736 95.4199 6.27202C95.6032 5.95241 95.6948 5.56037 95.6948 5.09588C95.6948 4.63139 95.6032 4.23509 95.4199 3.90696C95.2367 3.57457 94.9576 3.32315 94.5826 3.1527C94.2076 2.97798 93.7239 2.89062 93.1316 2.89062H90.9583V14H88.5868ZM95.3496 8.06818L98.5904 14H95.9441L92.7608 8.06818H95.3496ZM110.288 4.50781C110.229 3.94957 109.977 3.51491 109.534 3.20384C109.095 2.89276 108.524 2.73722 107.821 2.73722C107.327 2.73722 106.903 2.81179 106.549 2.96094C106.195 3.11008 105.925 3.3125 105.737 3.56818C105.55 3.82386 105.454 4.11577 105.449 4.44389C105.449 4.71662 105.511 4.95312 105.635 5.15341C105.763 5.35369 105.935 5.52415 106.153 5.66477C106.37 5.80114 106.611 5.91619 106.875 6.00994C107.139 6.10369 107.405 6.18253 107.674 6.24645L108.901 6.55327C109.395 6.66832 109.871 6.82386 110.327 7.01989C110.787 7.21591 111.198 7.46307 111.56 7.76136C111.927 8.05966 112.216 8.41974 112.43 8.84162C112.643 9.26349 112.749 9.75781 112.749 10.3246C112.749 11.0916 112.553 11.767 112.161 12.3509C111.769 12.9304 111.202 13.3842 110.461 13.7124C109.724 14.0362 108.831 14.1982 107.783 14.1982C106.764 14.1982 105.88 14.0405 105.13 13.7251C104.384 13.4098 103.8 12.9496 103.378 12.3445C102.961 11.7393 102.735 11.0021 102.701 10.1328H105.034C105.068 10.5888 105.209 10.968 105.456 11.2706C105.703 11.5732 106.025 11.799 106.421 11.9482C106.822 12.0973 107.269 12.1719 107.763 12.1719C108.279 12.1719 108.731 12.0952 109.118 11.9418C109.511 11.7841 109.817 11.5668 110.039 11.2898C110.261 11.0085 110.373 10.6804 110.378 10.3054C110.373 9.96449 110.273 9.68324 110.077 9.46165C109.881 9.2358 109.606 9.0483 109.253 8.89915C108.903 8.74574 108.494 8.60937 108.025 8.49006L106.536 8.10653C105.458 7.82955 104.606 7.4098 103.979 6.8473C103.357 6.28054 103.046 5.52841 103.046 4.59091C103.046 3.8196 103.255 3.14418 103.672 2.56463C104.094 1.98509 104.667 1.53551 105.392 1.21591C106.116 0.892045 106.937 0.730113 107.853 0.730113C108.782 0.730113 109.596 0.892045 110.295 1.21591C110.998 1.53551 111.55 1.98082 111.95 2.55185C112.351 3.11861 112.557 3.7706 112.57 4.50781H110.288Z" fill="#4B4B4B"/>
</svg>
